<svg xmlns="http://www.w3.org/2000/svg" viewBox="0 0 48 48" width="96" height="96" xmlns:v="https://vecta.io/nano"><path fill="#7cb342" d="M37.216 11.78c-.023-.211-.211-.305-.351-.305s-3.21-.234-3.21-.234l-2.39-2.343c-.234-.234-.68-.164-.867-.117-.023 0-.469.141-1.195.375-.726-2.086-1.968-3.984-4.194-3.984h-.211C24.187 4.375 23.391 4 22.735 4c-5.155 0-7.639 6.444-8.412 9.725l-3.609 1.125c-1.125.351-1.148.375-1.289 1.429-.117.797-3.046 23.456-3.046 23.456L29.179 44l12.373-2.671c.023-.047-4.312-29.338-4.336-29.549zm-9.279-2.297c-.562.164-1.242.375-1.921.609v-.421c0-1.265-.164-2.296-.469-3.117 1.171.141 1.898 1.43 2.39 2.929h0zm-3.82-2.671c.305.797.516 1.922.516 3.468v.234l-3.984 1.242c.773-2.952 2.25-4.405 3.468-4.944h0zm-1.5-1.453c.234 0 .469.094.656.234-1.664.773-3.421 2.718-4.148 6.655l-3.163.984c.844-2.999 2.953-7.873 6.655-7.873z"/><path fill="#558b2f" d="M36.865 11.428c-.141 0-3.21-.234-3.21-.234l-2.39-2.343c-.095-.094-.212-.141-.305-.141L29.249 44l12.373-2.671-4.359-29.549c-.094-.211-.258-.305-.398-.352z"/><path fill="#fff" d="M24.792 18.593l-1.475 4.449s-1.337-.715-2.927-.715c-2.374 0-2.489 1.498-2.489 1.867 0 2.028 5.301 2.812 5.301 7.583 0 3.757-2.374 6.177-5.578 6.177-3.872 0-5.808-2.397-5.808-2.397l1.037-3.411s2.028 1.752 3.734 1.752a1.51 1.51 0 0 0 1.59-1.521c0-2.651-4.333-2.766-4.333-7.145 0-3.665 2.628-7.214 7.952-7.214 1.981-.024 2.996.575 2.996.575z"/></svg>