<svg xmlns="http://www.w3.org/2000/svg" fill="#000000" viewBox="0 0 32 32" width="64" height="64" xmlns:v="https://vecta.io/nano"><path d="M22.051 9.949c-.525-.025-.951.051-.951.051l4 6-4 5.9s1.8.3 2.6-.5c.5-.5.8-1 2.5-3.4.3-.5.602 0 .602 0 1.5 2 1.9 2.8 2.6 3.4.9.7 2.6.5 2.6.5L28 16l3.9-6s-1.7-.3-2.5.5c-.6.6-1.2 1.4-2.6 3.5 0 0-.302.5-.602 0l-2.6-3.5c-.4-.4-1.024-.526-1.549-.551zM.42 9.99A3.06 3.06 0 0 0 0 10l3.199 12c0 0 1 .001 1.5-.199.7-.3 1-.601 1.4-2.201l1.5-6c.2-.7.501-.7.701 0 .1.3 1.1 4.5 1.5 6 .4 1.6.698 1.901 1.398 2.201.6.3 1.602.199 1.602.199L16 10c-1.1-.1-2.4.499-2.5 1.699l-1.699 6.4-1.4-5.199C10.1 11.4 9.4 10.6 8.1 10.6S6.201 11.3 5.801 12.9L4.4 18.1l-1.701-6.4C2.437 10.562 1.41 10.037.42 9.99zM19.6 10s-.799-.001-1.299.199c-.6.3-.801.9-.801 2.4 0 0 .301-.3.801-.5 1.4-.5 1.299-1.5 1.299-2.1zm-.1 2v.076c.024-.044.03-.076 0-.076zm0 .076c-.056.101-.25.284-.6.424-.3.2-.6.3-.9.4-.7.3-.6.699-.6 1.699V22s.799.101 1.299-.199c.7-.3.801-.701.801-2.201v-7.523z"/></svg>