<svg xmlns="http://www.w3.org/2000/svg" fill="#000000" width="50" height="50" xmlns:v="https://vecta.io/nano"><path d="M25 2C12.311 2 2 12.311 2 25s10.311 23 23 23 23-10.311 23-23S37.689 2 25 2zm0 2a20.99 20.99 0 1 1 0 42 20.99 20.99 0 1 1 0-42zm0 2C14.513 6 6 14.513 6 25s8.513 19 19 19 19-8.513 19-19S35.487 6 25 6zm0 2c3.972 0 7.612 1.366 10.502 3.639-.506.62-.803 1.415-.803 2.262 0 1.6.9 3 1.9 4.6.8 1.3 1.6 3 1.6 5.4 0 1.7-.5 3.8-1.5 6.4l-2 6.6-7.1-21.201L29.9 15.5c1-.1.9-1.6-.1-1.6h-.102s-3.199.299-5.299.299c-1.9 0-5.201-.299-5.201-.299h-.1c-1 0-1.1 1.6-.1 1.6l2.1.199 3.1 8.4L19.9 37l-7.201-21.4L15 15.4c1-.1.9-1.6-.1-1.6h-.1l-2.756.195C15.16 10.33 19.798 8 25 8zm12.088 5.041c1.361 1.375 2.475 2.988 3.305 4.764-.021 1.132-.209 2.263-.492 3.395-.4-1.4-.9-2.6-1.5-3.6l-.201-.4c-.8-1.3-1.398-2.299-1.398-3.199a1.72 1.72 0 0 1 .287-.959zM23.6 16.1h1c.4.1.701.1 1.201.1l.1.201L33 37.6l.697 1.996a16.9 16.9 0 0 1-1.172.637L27.199 26l-.699-1.9-.199-.699L23.6 16.1zm-13.133.1h.434l.1.201 7.199 21.4.602 1.799-.344 1.098c-.275-.114-.537-.251-.805-.379L9.518 17.994c.28-.62.599-1.217.949-1.795zm31.119 5.096A17.1 17.1 0 0 1 42 25a16.95 16.95 0 0 1-6.113 13.063L40.6 24.4c.437-1.113.753-2.139.986-3.105zm-33.219.178l6.213 16.951C10.579 35.317 8 30.472 8 25a17.14 17.14 0 0 1 .367-3.527zM25 26.6l5.342 14.535A17.02 17.02 0 0 1 25 42c-1.741 0-3.42-.264-5-.748L25 26.6z"/></svg>